<svg width="17" height="17" viewBox="0 0 17 17" fill="none" xmlns="http://www.w3.org/2000/svg">
<path d="M13.5281 7.48884C13.2128 7.35044 12.8722 7.27912 12.5279 7.27942H3.52593C3.18164 7.27909 2.84104 7.3503 2.52572 7.48853C2.08006 7.68342 1.70083 8.00392 1.43438 8.41086C1.16794 8.81781 1.02582 9.29355 1.02539 9.77996V13.2807C1.02539 13.4134 1.07808 13.5406 1.17187 13.6344C1.26566 13.7281 1.39286 13.7808 1.5255 13.7808C1.65814 13.7808 1.78534 13.7281 1.87913 13.6344C1.97292 13.5406 2.02561 13.4134 2.02561 13.2807V13.0307C2.02642 12.9646 2.05302 12.9015 2.09974 12.8548C2.14646 12.808 2.2096 12.7814 2.27566 12.7806H13.7782C13.8442 12.7814 13.9074 12.808 13.9541 12.8548C14.0008 12.9015 14.0274 12.9646 14.0282 13.0307V13.2807C14.0282 13.4134 14.0809 13.5406 14.1747 13.6344C14.2685 13.7281 14.3957 13.7808 14.5283 13.7808C14.661 13.7808 14.7882 13.7281 14.882 13.6344C14.9757 13.5406 15.0284 13.4134 15.0284 13.2807V9.77996C15.028 9.29361 14.8858 8.81793 14.6194 8.41105C14.3529 8.00417 13.9737 7.68371 13.5281 7.48884Z" fill="black"/>
<path d="M11.7777 2.77856H4.27602C3.81179 2.77856 3.36657 2.96298 3.03831 3.29124C2.71005 3.6195 2.52563 4.06472 2.52563 4.52895V6.77944C2.52565 6.79881 2.53017 6.81792 2.53883 6.83525C2.54749 6.85258 2.56006 6.86766 2.57555 6.8793C2.59104 6.89094 2.60902 6.89882 2.62808 6.90232C2.64713 6.90582 2.66674 6.90484 2.68536 6.89946C2.95837 6.81961 3.2414 6.77919 3.52585 6.77944H3.65807C3.68893 6.77963 3.71877 6.76841 3.74185 6.74792C3.76494 6.72744 3.77963 6.69914 3.7831 6.66847C3.81037 6.42411 3.92671 6.19835 4.10988 6.03431C4.29306 5.87028 4.53024 5.77947 4.77613 5.77922H6.52651C6.77255 5.77924 7.00996 5.86995 7.19334 6.034C7.37671 6.19806 7.49318 6.42394 7.52047 6.66847C7.52394 6.69914 7.53863 6.72744 7.56172 6.74792C7.5848 6.76841 7.61464 6.77963 7.6455 6.77944H8.41004C8.4409 6.77963 8.47075 6.76841 8.49383 6.74792C8.51691 6.72744 8.5316 6.69914 8.53507 6.66847C8.56233 6.42427 8.67853 6.19864 8.86151 6.03463C9.04449 5.87061 9.28144 5.7797 9.52716 5.77922H11.2775C11.5236 5.77924 11.761 5.86995 11.9444 6.034C12.1277 6.19806 12.2442 6.42394 12.2715 6.66847C12.275 6.69914 12.2897 6.72744 12.3128 6.74792C12.3358 6.76841 12.3657 6.77963 12.3965 6.77944H12.5278C12.8123 6.7793 13.0953 6.81982 13.3683 6.89977C13.387 6.90516 13.4066 6.90613 13.4257 6.90261C13.4447 6.8991 13.4627 6.89119 13.4782 6.87952C13.4937 6.86784 13.5063 6.85272 13.5149 6.83535C13.5236 6.81798 13.5281 6.79884 13.528 6.77944V4.52895C13.528 4.06472 13.3436 3.6195 13.0154 3.29124C12.6871 2.96298 12.2419 2.77856 11.7777 2.77856Z" fill="black"/>
</svg>
