<svg width="17" height="17" viewBox="0 0 17 17" fill="none" xmlns="http://www.w3.org/2000/svg">
<path d="M14.0168 6.94563C14.0097 6.91257 13.9992 6.88031 13.9855 6.84936L12.8046 4.09376C12.5324 3.45706 11.8701 3.04541 11.1165 3.04541H4.9345C4.18152 3.04541 3.51856 3.45706 3.24663 4.09376L2.0645 6.84936C2.03763 6.91152 2.0239 6.97857 2.02417 7.04628V12.5475C2.02417 12.6801 2.07686 12.8073 2.17065 12.9011C2.26444 12.9949 2.39165 13.0476 2.52428 13.0476H3.5245C3.65714 13.0476 3.78434 12.9949 3.87813 12.9011C3.97192 12.8073 4.02461 12.6801 4.02461 12.5475V12.0474H12.0264V12.5475C12.0264 12.6801 12.079 12.8073 12.1728 12.9011C12.2666 12.9949 12.3938 13.0476 12.5265 13.0476H13.5267C13.6593 13.0476 13.7865 12.9949 13.8803 12.9011C13.9741 12.8073 14.0268 12.6801 14.0268 12.5475V7.04628C14.0268 7.01248 14.0235 6.97876 14.0168 6.94563ZM4.52472 10.0469C4.32689 10.0469 4.13351 9.98827 3.96903 9.87837C3.80454 9.76846 3.67634 9.61225 3.60064 9.42948C3.52493 9.24672 3.50513 9.04561 3.54372 8.85158C3.58231 8.65756 3.67757 8.47934 3.81746 8.33946C3.95734 8.19957 4.13556 8.10431 4.32959 8.06572C4.52361 8.02712 4.72472 8.04693 4.90749 8.12264C5.09025 8.19834 5.24646 8.32654 5.35637 8.49103C5.46627 8.65551 5.52494 8.84889 5.52494 9.04672C5.52494 9.31199 5.41956 9.5664 5.23198 9.75398C5.0444 9.94156 4.78999 10.0469 4.52472 10.0469ZM11.5262 10.0469C11.3284 10.0469 11.135 9.98827 10.9706 9.87837C10.8061 9.76846 10.6779 9.61225 10.6022 9.42948C10.5265 9.24672 10.5067 9.04561 10.5452 8.85158C10.5838 8.65756 10.6791 8.47934 10.819 8.33946C10.9589 8.19957 11.1371 8.10431 11.3311 8.06572C11.5251 8.02712 11.7262 8.04693 11.909 8.12264C12.0918 8.19834 12.248 8.32654 12.3579 8.49103C12.4678 8.65551 12.5265 8.84889 12.5265 9.04672C12.5265 9.31199 12.4211 9.5664 12.2335 9.75398C12.0459 9.94156 11.7915 10.0469 11.5262 10.0469ZM3.28257 6.54617L4.16495 4.48791C4.2781 4.22348 4.58723 4.04563 4.9345 4.04563H11.1165C11.4634 4.04563 11.7729 4.22348 11.886 4.48791L12.7684 6.54617H3.28257Z" fill="black"/>
</svg>
