<svg width="17" height="17" viewBox="0 0 17 17" fill="none" xmlns="http://www.w3.org/2000/svg">
<g clip-path="url(#clip0_5_1475)">
<path d="M15.0053 3.06272H12.1591L12.4379 1.9481L13.6356 1.5402C13.8904 1.45362 14.042 1.18294 13.9685 0.92413C13.9498 0.859026 13.9181 0.798397 13.8753 0.74592C13.8325 0.693444 13.7794 0.650213 13.7194 0.618851C13.6594 0.587489 13.5936 0.568649 13.526 0.563474C13.4585 0.558298 13.3906 0.566896 13.3265 0.588745L11.8574 1.08885C11.7783 1.11583 11.7072 1.16221 11.6507 1.22375C11.5941 1.28528 11.5539 1.36002 11.5336 1.44112L11.1282 3.06272H7.03171C6.76259 3.06272 6.5316 3.26964 6.51816 3.53876C6.5149 3.60638 6.5254 3.67396 6.54903 3.7374C6.57267 3.80084 6.60893 3.85882 6.65563 3.90783C6.70233 3.95684 6.7585 3.99586 6.82073 4.02252C6.88295 4.04918 6.94994 4.06293 7.01764 4.06294H7.1036L7.13485 4.33362C7.14222 4.39684 7.17255 4.45514 7.2201 4.49744C7.26765 4.53974 7.32908 4.56309 7.39272 4.56305C8.61174 4.56305 9.6951 4.90375 10.5222 5.54826C10.9822 5.90271 11.3551 6.35762 11.6124 6.87824C11.7564 7.17108 11.8627 7.48102 11.9287 7.80063C11.9419 7.86291 11.9787 7.91762 12.0315 7.95316C12.4567 8.24167 12.7704 8.667 12.9204 9.15846C13.0704 9.64992 13.0477 10.1779 12.8561 10.6547C12.8338 10.7099 12.8321 10.7712 12.8514 10.8275C12.9621 11.1449 13.0188 11.4785 13.019 11.8146C13.019 12.5129 12.7814 13.1784 12.3501 13.6885C12.1055 13.9796 11.7979 14.2112 11.4505 14.3658C11.3904 14.3923 11.3431 14.4414 11.3189 14.5024C11.1891 14.8406 11.0058 15.1557 10.776 15.4357C10.7664 15.4471 10.7603 15.4609 10.7583 15.4757C10.7563 15.4904 10.7586 15.5054 10.7648 15.5188C10.771 15.5323 10.781 15.5437 10.7935 15.5518C10.806 15.5598 10.8205 15.5641 10.8353 15.5642H12.3735C12.7501 15.5626 13.1125 15.4202 13.3893 15.1648C13.6661 14.9095 13.8373 14.5598 13.8691 14.1845L14.9381 4.06294H15.0194C15.0871 4.06302 15.1542 4.04933 15.2165 4.0227C15.2788 3.99608 15.335 3.95707 15.3818 3.90806C15.4286 3.85904 15.4649 3.80103 15.4886 3.73754C15.5122 3.67406 15.5228 3.60643 15.5195 3.53876C15.5064 3.26964 15.2744 3.06272 15.0053 3.06272Z" fill="black"/>
<path d="M3.41355 10.0641C3.51219 10.0636 3.60994 10.0827 3.70114 10.1203C3.79235 10.1578 3.87521 10.2131 3.94492 10.2829L4.42971 10.7677C4.44132 10.7793 4.45511 10.7885 4.47029 10.7948C4.48547 10.8011 4.50174 10.8044 4.51817 10.8044C4.5346 10.8044 4.55087 10.8011 4.56604 10.7948C4.58122 10.7885 4.59501 10.7793 4.60662 10.7677L5.09048 10.2829C5.16019 10.2131 5.24304 10.1578 5.33425 10.1203C5.42546 10.0827 5.52321 10.0636 5.62184 10.0641H11.7663C11.7991 10.0644 11.8317 10.0583 11.8622 10.046C11.8927 10.0338 11.9204 10.0156 11.9439 9.99262C11.9673 9.96964 11.986 9.94225 11.9989 9.91204C12.0117 9.88183 12.0185 9.84938 12.0189 9.81654V9.81404C12.0185 9.52592 11.9188 9.24673 11.7366 9.02354C11.5544 8.80035 11.3009 8.6468 11.0186 8.58877C10.993 7.66075 10.6123 6.88402 9.90872 6.33828C9.25795 5.83067 8.38838 5.56311 7.39285 5.56311H5.14236C3.01003 5.56311 1.56565 6.77494 1.51658 8.58877C1.23436 8.6468 0.980783 8.80035 0.798584 9.02354C0.616386 9.24673 0.516709 9.52592 0.516357 9.81404C0.516357 9.88036 0.542702 9.94396 0.589597 9.99085C0.636491 10.0377 0.700093 10.0641 0.766412 10.0641H3.41355Z" fill="black"/>
<path d="M5.82814 11.0648C5.79529 11.0648 5.76276 11.0712 5.73241 11.0838C5.70205 11.0963 5.67447 11.1148 5.65123 11.138L4.9592 11.8303C4.84197 11.9475 4.68299 12.0133 4.51723 12.0133C4.35147 12.0133 4.19249 11.9475 4.07526 11.8303L3.38323 11.138C3.35999 11.1148 3.33241 11.0963 3.30205 11.0838C3.2717 11.0712 3.23917 11.0648 3.20632 11.0648H1.0371C0.919619 11.0643 0.805741 11.1053 0.715595 11.1807C0.625449 11.256 0.564842 11.3608 0.544489 11.4765C0.525711 11.5883 0.516301 11.7016 0.516358 11.815C0.516358 12.7711 1.17681 13.5501 1.99355 13.5654C2.06951 14.038 2.2533 14.4649 2.52992 14.7991C2.93907 15.2932 3.53389 15.5658 4.20466 15.5658H8.33056C9.00133 15.5658 9.59615 15.2932 10.0053 14.7985C10.2819 14.4643 10.4657 14.0373 10.5417 13.5647C11.3584 13.5501 12.0189 12.7711 12.0189 11.8144C12.0189 11.7009 12.0095 11.5877 11.9907 11.4759C11.9702 11.3603 11.9096 11.2556 11.8194 11.1804C11.7293 11.1052 11.6155 11.0643 11.4981 11.0648H5.82814Z" fill="black"/>
</g>
<defs>
<clipPath id="clip0_5_1475">
<rect width="16.0035" height="16.0035" fill="white" transform="translate(0.0166016 0.0615845)"/>
</clipPath>
</defs>
</svg>
