<svg width="17" height="17" viewBox="0 0 17 17" fill="none" xmlns="http://www.w3.org/2000/svg">
<path d="M8.00898 1.53088C4.41851 1.53088 1.50757 4.44183 1.50757 8.0323C1.50757 11.6171 4.42445 14.5337 8.00898 14.5337C11.5991 14.5337 14.5104 11.6225 14.5104 8.0323C14.5104 4.44746 11.5938 1.53088 8.00898 1.53088ZM11.3847 9.03252H7.6339C7.60074 9.03252 7.56894 9.01935 7.5455 8.9959C7.52205 8.97245 7.50888 8.94065 7.50888 8.90749V3.65635C7.50888 3.62319 7.52205 3.59139 7.5455 3.56794C7.56894 3.54449 7.60074 3.53132 7.6339 3.53132H8.38407C8.41723 3.53132 8.44903 3.54449 8.47247 3.56794C8.49592 3.59139 8.50909 3.62319 8.50909 3.65635V8.0323H11.3847C11.4179 8.0323 11.4497 8.04547 11.4731 8.06892C11.4966 8.09237 11.5097 8.12417 11.5097 8.15733V8.90749C11.5097 8.94065 11.4966 8.97245 11.4731 8.9959C11.4497 9.01935 11.4179 9.03252 11.3847 9.03252Z" fill="white"/>
</svg>
