<svg width="17" height="17" viewBox="0 0 17 17" fill="none" xmlns="http://www.w3.org/2000/svg">
<path d="M1.19434 14.3989C1.19434 14.5979 1.27337 14.7887 1.41405 14.9294C1.55474 15.0701 1.74554 15.1491 1.9445 15.1491H14.4472C14.6462 15.1491 14.837 15.0701 14.9777 14.9294C15.1183 14.7887 15.1974 14.5979 15.1974 14.3989V5.64703H1.19434V14.3989ZM11.1965 6.77228C11.1965 6.73912 11.2097 6.70732 11.2331 6.68387C11.2566 6.66042 11.2884 6.64725 11.3215 6.64725H12.5718C12.605 6.64725 12.6368 6.66042 12.6602 6.68387C12.6837 6.70732 12.6968 6.73912 12.6968 6.77228V8.02255C12.6968 8.05571 12.6837 8.08751 12.6602 8.11096C12.6368 8.13441 12.605 8.14758 12.5718 8.14758H11.3215C11.2884 8.14758 11.2566 8.13441 11.2331 8.11096C11.2097 8.08751 11.1965 8.05571 11.1965 8.02255V6.77228ZM11.1965 9.27283C11.1965 9.23967 11.2097 9.20786 11.2331 9.18442C11.2566 9.16097 11.2884 9.1478 11.3215 9.1478H12.5718C12.605 9.1478 12.6368 9.16097 12.6602 9.18442C12.6837 9.20786 12.6968 9.23967 12.6968 9.27283V10.5231C12.6968 10.5563 12.6837 10.5881 12.6602 10.6115C12.6368 10.635 12.605 10.6481 12.5718 10.6481H11.3215C11.2884 10.6481 11.2566 10.635 11.2331 10.6115C11.2097 10.5881 11.1965 10.5563 11.1965 10.5231V9.27283ZM8.69597 6.77228C8.69597 6.73912 8.70914 6.70732 8.73259 6.68387C8.75604 6.66042 8.78784 6.64725 8.821 6.64725H10.0713C10.1044 6.64725 10.1362 6.66042 10.1597 6.68387C10.1831 6.70732 10.1963 6.73912 10.1963 6.77228V8.02255C10.1963 8.05571 10.1831 8.08751 10.1597 8.11096C10.1362 8.13441 10.1044 8.14758 10.0713 8.14758H8.821C8.78784 8.14758 8.75604 8.13441 8.73259 8.11096C8.70914 8.08751 8.69597 8.05571 8.69597 8.02255V6.77228ZM8.69597 9.27283C8.69597 9.23967 8.70914 9.20786 8.73259 9.18442C8.75604 9.16097 8.78784 9.1478 8.821 9.1478H10.0713C10.1044 9.1478 10.1362 9.16097 10.1597 9.18442C10.1831 9.20786 10.1963 9.23967 10.1963 9.27283V10.5231C10.1963 10.5563 10.1831 10.5881 10.1597 10.6115C10.1362 10.635 10.1044 10.6481 10.0713 10.6481H8.821C8.78784 10.6481 8.75604 10.635 8.73259 10.6115C8.70914 10.5881 8.69597 10.5563 8.69597 10.5231V9.27283ZM8.69597 11.7734C8.69597 11.7402 8.70914 11.7084 8.73259 11.685C8.75604 11.6615 8.78784 11.6483 8.821 11.6483H10.0713C10.1044 11.6483 10.1362 11.6615 10.1597 11.685C10.1831 11.7084 10.1963 11.7402 10.1963 11.7734V13.0236C10.1963 13.0568 10.1831 13.0886 10.1597 13.1121C10.1362 13.1355 10.1044 13.1487 10.0713 13.1487H8.821C8.78784 13.1487 8.75604 13.1355 8.73259 13.1121C8.70914 13.0886 8.69597 13.0568 8.69597 13.0236V11.7734ZM6.19542 9.27283C6.19542 9.23967 6.2086 9.20786 6.23204 9.18442C6.25549 9.16097 6.28729 9.1478 6.32045 9.1478H7.57072C7.60388 9.1478 7.63568 9.16097 7.65913 9.18442C7.68258 9.20786 7.69575 9.23967 7.69575 9.27283V10.5231C7.69575 10.5563 7.68258 10.5881 7.65913 10.6115C7.63568 10.635 7.60388 10.6481 7.57072 10.6481H6.32045C6.28729 10.6481 6.25549 10.635 6.23204 10.6115C6.2086 10.5881 6.19542 10.5563 6.19542 10.5231V9.27283ZM6.19542 11.7734C6.19542 11.7402 6.2086 11.7084 6.23204 11.685C6.25549 11.6615 6.28729 11.6483 6.32045 11.6483H7.57072C7.60388 11.6483 7.63568 11.6615 7.65913 11.685C7.68258 11.7084 7.69575 11.7402 7.69575 11.7734V13.0236C7.69575 13.0568 7.68258 13.0886 7.65913 13.1121C7.63568 13.1355 7.60388 13.1487 7.57072 13.1487H6.32045C6.28729 13.1487 6.25549 13.1355 6.23204 13.1121C6.2086 13.0886 6.19542 13.0568 6.19542 13.0236V11.7734ZM3.69488 9.27283C3.69488 9.23967 3.70805 9.20786 3.7315 9.18442C3.75495 9.16097 3.78675 9.1478 3.81991 9.1478H5.07018C5.10334 9.1478 5.13514 9.16097 5.15859 9.18442C5.18203 9.20786 5.19521 9.23967 5.19521 9.27283V10.5231C5.19521 10.5563 5.18203 10.5881 5.15859 10.6115C5.13514 10.635 5.10334 10.6481 5.07018 10.6481H3.81991C3.78675 10.6481 3.75495 10.635 3.7315 10.6115C3.70805 10.5881 3.69488 10.5563 3.69488 10.5231V9.27283ZM3.69488 11.7734C3.69488 11.7402 3.70805 11.7084 3.7315 11.685C3.75495 11.6615 3.78675 11.6483 3.81991 11.6483H5.07018C5.10334 11.6483 5.13514 11.6615 5.15859 11.685C5.18203 11.7084 5.19521 11.7402 5.19521 11.7734V13.0236C5.19521 13.0568 5.18203 13.0886 5.15859 13.1121C5.13514 13.1355 5.10334 13.1487 5.07018 13.1487H3.81991C3.78675 13.1487 3.75495 13.1355 3.7315 13.1121C3.70805 13.0886 3.69488 13.0568 3.69488 13.0236V11.7734Z" fill="white"/>
<path d="M14.4472 2.14627H12.6993V1.14606H11.199V2.14627H5.19271V1.14606H3.69238V2.14627H1.9445C1.84636 2.14545 1.74903 2.16405 1.65811 2.20101C1.5672 2.23797 1.48449 2.29255 1.41476 2.36161C1.34503 2.43067 1.28966 2.51285 1.25183 2.6034C1.21399 2.69396 1.19446 2.79111 1.19434 2.88925V4.64682H15.1974V2.88925C15.1973 2.79111 15.1777 2.69396 15.1399 2.6034C15.1021 2.51285 15.0467 2.43067 14.977 2.36161C14.9072 2.29255 14.8245 2.23797 14.7336 2.20101C14.6427 2.16405 14.5454 2.14545 14.4472 2.14627V2.14627Z" fill="white"/>
</svg>
