<svg width="17" height="17" viewBox="0 0 17 17" fill="none" xmlns="http://www.w3.org/2000/svg">
<path d="M8.00902 1.02979C5.24811 1.02979 3.00793 3.04616 3.00793 5.53076C3.00793 9.53164 8.00902 15.0328 8.00902 15.0328C8.00902 15.0328 13.0101 9.53164 13.0101 5.53076C13.0101 3.04616 10.7699 1.02979 8.00902 1.02979ZM8.00902 8.03131C7.61337 8.03131 7.22661 7.91399 6.89764 7.69417C6.56867 7.47436 6.31227 7.16194 6.16086 6.79641C6.00945 6.43088 5.96984 6.02865 6.04703 5.64061C6.12421 5.25256 6.31474 4.89612 6.5945 4.61635C6.87427 4.33659 7.23071 4.14606 7.61876 4.06888C8.0068 3.99169 8.40902 4.0313 8.77456 4.18271C9.14009 4.33412 9.45251 4.59052 9.67232 4.91949C9.89214 5.24846 10.0095 5.63522 10.0095 6.03087C10.0089 6.56124 9.79793 7.06973 9.42291 7.44476C9.04788 7.81978 8.53939 8.03073 8.00902 8.03131Z" fill="white"/>
</svg>
