<svg width="32" height="32" viewBox="0 0 32 32" fill="none" xmlns="http://www.w3.org/2000/svg">
<path d="M29.934 23.1333C29.6077 22.7858 28.4558 21.7583 26.3383 20.399C24.2052 19.0277 22.6321 18.1727 22.1808 17.9733C22.1411 17.9557 22.0972 17.9492 22.0541 17.9546C22.0109 17.96 21.97 17.9771 21.9358 18.004C21.209 18.5708 19.9852 19.6121 19.9196 19.6683C19.4958 20.0315 19.4958 20.0315 19.149 19.9183C18.5389 19.7183 16.644 18.7121 14.9927 17.0571C13.3415 15.4021 12.2833 13.4602 12.0833 12.8508C11.969 12.5033 11.969 12.5033 12.3333 12.0796C12.3896 12.014 13.4314 10.7902 13.9983 10.064C14.0252 10.0298 14.0423 9.98889 14.0477 9.94572C14.0531 9.90256 14.0466 9.85874 14.029 9.81897C13.8296 9.3671 12.9746 7.7946 11.6033 5.66147C10.2421 3.5446 9.21582 2.39272 8.86832 2.06647C8.83644 2.03638 8.79702 2.01545 8.75423 2.00588C8.71144 1.99631 8.66687 1.99846 8.6252 2.0121C7.4105 2.42952 6.23849 2.96216 5.1252 3.60272C4.05046 4.22749 3.03297 4.9459 2.08457 5.7496C2.05147 5.77774 2.02665 5.81437 2.01277 5.85555C1.9989 5.89673 1.9965 5.94091 2.00582 5.98335C2.13645 6.5921 2.76082 9.13335 4.69832 12.6533C6.6752 16.2458 8.0452 18.0865 10.9483 20.9796C13.8514 23.8727 15.7502 25.3252 19.3465 27.3021C22.8665 29.2396 25.409 29.8646 26.0165 29.994C26.059 30.0032 26.1032 30.0008 26.1445 29.9869C26.1858 29.973 26.2225 29.9483 26.2508 29.9152C27.0544 28.9669 27.7726 27.9494 28.3971 26.8746C29.0375 25.7612 29.5702 24.5892 29.9877 23.3746C30.0011 23.3332 30.0031 23.2891 29.9937 23.2467C29.9842 23.2042 29.9636 23.1651 29.934 23.1333Z" fill="black"/>
</svg>
