<svg width="28" height="28" viewBox="0 0 28 28" fill="none" xmlns="http://www.w3.org/2000/svg">
<path fill-rule="evenodd" clip-rule="evenodd" d="M23.9189 4.06881C22.6246 2.77386 21.0869 1.7477 19.3944 1.04941C17.7019 0.351121 15.8879 -0.00550402 14.057 6.42123e-05C6.37329 6.42123e-05 0.118291 6.22381 0.115166 13.8751C0.111767 16.3114 0.753976 18.7051 1.97642 20.8126L-0.00170898 28.0001L7.38892 26.0707C9.43468 27.179 11.7247 27.759 14.0514 27.7582H14.057C21.7402 27.7582 27.9945 21.5338 27.9983 13.8832C28.0029 12.0585 27.6447 10.2512 26.9443 8.56628C26.244 6.88137 25.2156 5.35257 23.9189 4.06881V4.06881ZM14.057 25.4163H14.052C11.9779 25.4169 9.94148 24.8619 8.15454 23.8088L7.73142 23.5588L3.34579 24.7038L4.51642 20.4482L4.24079 20.0107C3.08103 18.1746 2.46657 16.0468 2.46892 13.8751C2.46892 7.51694 7.66954 2.34381 14.0614 2.34381C17.1277 2.33834 20.0705 3.55102 22.2427 5.71514C24.4149 7.87926 25.6386 10.8176 25.6445 13.8838C25.642 20.2426 20.4439 25.4163 14.057 25.4163ZM20.4127 16.7794C20.0645 16.6057 18.3502 15.7669 18.0327 15.6513C17.7152 15.5357 17.4808 15.4776 17.2489 15.8251C17.017 16.1726 16.3489 16.9501 16.1458 17.1844C15.9427 17.4188 15.7395 17.4444 15.3914 17.2707C15.0433 17.0969 13.9202 16.7313 12.5895 15.5501C11.5539 14.6307 10.8552 13.4957 10.652 13.1488C10.4489 12.8019 10.6302 12.6138 10.8045 12.4413C10.9614 12.2857 11.1527 12.0363 11.327 11.8338C11.5014 11.6313 11.5595 11.4863 11.6752 11.2551C11.7908 11.0238 11.7333 10.8213 11.6464 10.6482C11.5595 10.4751 10.8627 8.76819 10.5727 8.07381C10.2895 7.39756 10.0027 7.48944 9.78892 7.47882C9.58579 7.46882 9.35142 7.46632 9.12079 7.46632C8.94449 7.4709 8.77102 7.51179 8.61122 7.58642C8.45142 7.66105 8.30873 7.76782 8.19204 7.90006C7.87267 8.24756 6.97267 9.08756 6.97267 10.7926C6.97267 12.4976 8.22267 14.1476 8.39517 14.3788C8.56767 14.6101 10.8514 18.1119 14.3458 19.6138C14.9947 19.8917 15.6577 20.1354 16.332 20.3438C17.1664 20.6076 17.9258 20.5707 18.5258 20.4813C19.1952 20.3819 20.5883 19.6426 20.8777 18.8326C21.167 18.0226 21.1677 17.3288 21.0808 17.1844C20.9939 17.0401 20.7614 16.9526 20.4127 16.7794Z" fill="black"/>
</svg>
